PathFileType	4	(X/Y/Z)	46_2_98_p1_0-380.trc
DataRate	CameraRate	NumFrames	NumMarkers	Units	OrigDataRate	OrigDataStartFrame	OrigNumFrames
59.0	59.0	6	27	m	59.0	0	381
Frame#	Time	RHip			RKnee			RAnkle			RBigToe			RSmallToe			RHeel			LHip			LKnee			LAnkle			LBigToe			LSmallToe			LHeel			Neck			Head			Nose			RShoulder			RElbow			RWrist			RThumb			RIndex			RPinky			LShoulder			LElbow			LWrist			LThumb			LIndex			LPinky			
		X1	Y1	Z1	X2	Y2	Z2	X3	Y3	Z3	X4	Y4	Z4	X5	Y5	Z5	X6	Y6	Z6	X7	Y7	Z7	X8	Y8	Z8	X9	Y9	Z9	X10	Y10	Z10	X11	Y11	Z11	X12	Y12	Z12	X13	Y13	Z13	X14	Y14	Z14	X15	Y15	Z15	X16	Y16	Z16	X17	Y17	Z17	X18	Y18	Z18	X19	Y19	Z19	X20	Y20	Z20	X21	Y21	Z21	X22	Y22	Z22	X23	Y23	Z23	X24	Y24	Z24	X25	Y25	Z25	X26	Y26	Z26	X27	Y27	Z27	
0	0.0	0.3439549450431572	0.3977884840578385	0.6461787230712055	0.34327048083448863	0.42609758646019674	1.0940281064940185	0.34341283285704016	0.493443117178737	1.50566254191185	0.35963286407678746	0.3791632652228942	1.543971814175724	0.4105632138480146	0.3855150220626369	1.53277715421605	0.3119215993868405	0.5908698032258131	1.5982239361161472	0.14267064662038134	0.39743806099336426	0.6581697606153075	0.14104055876027505	0.4568382275226285	1.0982729585799667	0.13426440196654577	0.5187820163508516	1.5382064098150383	0.1924534120100519	0.29602664977469445	1.491588908720968	0.14047807183768077	0.3436688348610763	1.5120303516342692	0.12061811433241763	0.592048896587701	1.5918600052128848	0.27259025416320526	0.3858689242138882	0.1406812277757631	0.28355030549092985	0.2930057952832111	-0.10720435601748407	0.27060627992038505	0.26525113558325464	0.025105235871372575	0.41483936317523556	0.37746269829200435	0.22952348183649354	0.4995010837386872	0.3094756342556667	0.4602322097504367	0.3710535530036935	0.19164877051249024	0.6314877115971214	0.25346866585416045	0.16861102948923862	0.65195309086407	0.24355481881555918	0.1579230364050419	0.7139589589660765	0.2575516699643988	0.1493076436264912	0.7220835715673106	0.12043887001079706	0.34328277367153026	0.20832023526820267	0.03581974703171229	0.3139906293278811	0.4570732956191274	0.15887001438737655	0.15148991135139692	0.6002917556872411	0.2641392089479308	0.12480320452394013	0.6252128215694096	0.2721951615605879	0.1361555493010329	0.6867050690243968	0.22922691397987613	0.14814971602504456	0.7317103460861363
1	0.01694915254237288	0.34801917031079177	0.39944927241130834	0.6464484839438042	0.3434321035156945	0.42597916574690564	1.0941343466494895	0.34336637375787415	0.4938986911364195	1.5060509009746825	0.34970558259603757	0.39142179289578183	1.552008569347531	0.40483568837622813	0.4013398633269681	1.5423191151540006	0.3147428437086564	0.6057986563752683	1.6061803918906647	0.1416833107861618	0.384267571352588	0.659121599584518	0.14097737819024703	0.45713745202005457	1.0987434354319485	0.13422999834294505	0.5183035270609827	1.5378850540530336	0.19317376966644986	0.3118335783959135	1.5090637985351614	0.13990330751306826	0.3462778859589727	1.5227624321962683	0.1205743598637651	0.5919799778684907	1.591654709030338	0.272870823707778	0.38694211454551247	0.14440755383202528	0.2858606139855801	0.3040856417220756	-0.10700010449294124	0.2706398162739819	0.2651139519065458	0.025209896124999888	0.4148795098276634	0.3772994392656182	0.22952058353354918	0.49185940878242973	0.31015177524940385	0.46778029476488664	0.3584732767008643	0.20010229981958916	0.6418234382420633	0.2532909422759211	0.15826620810384906	0.6457367509517883	0.2354782273900017	0.15529796273967142	0.7137113267699149	0.2524790346614951	0.15931073122806827	0.7262646208635978	0.12109672951363637	0.344484341097115	0.20852115654454878	0.04668113608055947	0.2937285651943516	0.4493168489978701	0.16790822333977973	0.15826113216484927	0.6018312471542475	0.2746660163396425	0.13773998524018788	0.6279788502798697	0.277542417132051	0.1367571196681414	0.6827477246605428	0.23298392464787632	0.1543167157993544	0.7298726650280115
2	0.03389830508474576	0.35306123906229425	0.3850896204420165	0.6378675720816851	0.3424720090348387	0.4263810225653221	1.0981505205473043	0.3380805713539011	0.5114779987264979	1.5206528900628435	0.34724216740311686	0.3789443818927398	1.5451500203637147	0.4047139277891528	0.40127506150073106	1.5423474749910284	0.31474429396716624	0.6060534051698965	1.605680737160579	0.1445377193008502	0.4058090742864978	0.6531955797234397	0.14056510192602173	0.4552175549544919	1.093120747893253	0.1343076384527322	0.5183817768053502	1.5378631609246738	0.19433095603241138	0.3114876991036879	1.5048861409217404	0.1411223549629492	0.34556136727535386	1.5183139234755199	0.12833124973295323	0.5753524123649117	1.5822649796673571	0.2726770808480857	0.3859165709281804	0.1407193286990363	0.28585420827761343	0.3040645074281011	-0.1069999849710292	0.27066052687835557	0.2651750837476952	0.02521665951007673	0.4148531091556413	0.3774568673514164	0.22947378053243406	0.49156310161125544	0.30896780798321977	0.4635914808938386	0.36122029645020826	0.21153063636269231	0.6411322653642051	0.2537250001714148	0.1588886471655583	0.6538810873335794	0.23756251512910612	0.16942796200288562	0.7218980014589926	0.2606859985285156	0.1618286484958401	0.7294550491150978	0.1211578179940438	0.344656140168298	0.20855982630712996	0.05424192192085758	0.29186729425892616	0.4487181486206219	0.17405363392983056	0.17201723965455648	0.5938787303881767	0.28528166272033867	0.11643760371371542	0.6215204574451744	0.28471367274238835	0.13846382154957068	0.6836980183634503	0.2406688082456413	0.15781667929289295	0.7305095489999708
3	0.05084745762711865	0.3530323473926324	0.386575455397525	0.6467338539022905	0.34192892261889607	0.4242496473307929	1.0930143164407975	0.33971839627000994	0.5244327447033131	1.5227022026098487	0.34719426446522	0.37878080762222216	1.5448418371634174	0.4020127357497773	0.3882714073559717	1.535049866911301	0.3148156029581987	0.6066431296444206	1.605432665667116	0.14400715292017288	0.4087176949702943	0.6710649600727788	0.14042839163322346	0.45475323909265514	1.0925990377833514	0.13424983018959769	0.5185639035484244	1.5377340719182524	0.19422379982512925	0.3115725376555033	1.5047016100706274	0.14048002136492424	0.34388866019480474	1.5119579688003084	0.12181759870387328	0.5922305376554111	1.5864549944649715	0.2728440276691239	0.38708143786561783	0.1443640879109889	0.2858529486048615	0.30413266767754266	-0.10698860737695863	0.27062050670004817	0.26523246933598055	0.025163488464705334	0.41441361666739873	0.3763147992676773	0.22576056627099295	0.4909836059437304	0.3086283054537403	0.4666582308194386	0.3580267008676038	0.20062544602647664	0.6308320743581202	0.25932286376928787	0.17220525152372246	0.6737537296373296	0.25399475413780953	0.1733882088573075	0.7339066809120576	0.25905588488526354	0.19800548274120489	0.7413260830422514	0.12111851147632213	0.34354548659401396	0.20485080853031798	0.058111181542981685	0.29538912665090444	0.4564816874048788	0.1812225066210356	0.19898082836856895	0.6161905550017358	0.2970462850142888	0.11933006189968781	0.6266673639241043	0.29851222385148046	0.15346881296702883	0.7027623977726545	0.25213566684126054	0.16107796356197457	0.7343764271014577
4	0.06779661016949153	0.35357094748279777	0.3855177576639002	0.6505236011679637	0.3426003934066579	0.4263161892071885	1.098159550298088	0.3397884431087308	0.5282761502397892	1.5245327659802803	0.347030086036218	0.37865666402135395	1.54475396166102	0.3975572195512662	0.3855512300783814	1.5339448996345084	0.31477828010564946	0.6067354197728307	1.6055367905440536	0.14483891492285297	0.4093582667064982	0.680570000736203	0.14089802678461172	0.45348181993652564	1.0964363523090686	0.13434831986303072	0.5185953061115067	1.537760789223202	0.18814882918262277	0.29679381283710804	1.4968288955182696	0.14046278810571702	0.3437988476526501	1.5117144042293598	0.12973734088129815	0.575683616907934	1.5768911850236358	0.2726768712411427	0.3859557913394318	0.14067682264245543	0.28604913061692294	0.30384351906860135	-0.10410229293434682	0.2706389897546987	0.2652663038257793	0.02511699644711957	0.4147162422490963	0.377533782817255	0.2294350605216774	0.4867854653019332	0.321057184522289	0.46615989924366275	0.3547055975681723	0.1990973320046784	0.6379482329045516	0.2681659312304512	0.18875606473199444	0.7185832920756814	0.26204594399482334	0.20113800575900564	0.7474222809954426	0.2626511209334312	0.2254226907759166	0.7502253251050226	0.12080593637148031	0.343412582098132	0.20839580205451502	0.06553709543187486	0.29562382648368135	0.4560160603833783	0.1922035915869791	0.2223437358192637	0.6302935510900296	0.302684393215755	0.1657027117935696	0.6476259494341361	0.2990615824427586	0.1803562055477796	0.7187512743280381	0.25479267453637433	0.17260758913889088	0.7380239806340062
5	0.0847457627118644	0.3544468627874292	0.38620415813106546	0.6588193282309651	0.34587424848244963	0.43930891950941003	1.0992860521079113	0.3366840958899646	0.5115663059003822	1.5109977494899656	0.34618771957277933	0.37705970597016464	1.5394320765977607	0.39620034654330305	0.4033742591435266	1.5442164956615505	0.31469629729571	0.6065801495117542	1.6051741324606463	0.14527762249928233	0.408504372438506	0.6844137739023383	0.14132071307899322	0.4521798645140821	1.1007428492671452	0.13541375655193869	0.5182978606421613	1.5328918066386248	0.19518659128860044	0.31117064088636015	1.5007416871466255	0.13509178895341878	0.35620527656703266	1.515877942716812	0.12970113869310546	0.5755958151563267	1.5768348116666935	0.2726762280359852	0.38597414241979694	0.1406796581701858	0.2860388830828401	0.3037762424233145	-0.10405875050386837	0.27064789569037107	0.2652227928367237	0.02509573670205603	0.41441634589280635	0.3763143803352854	0.22576080509256075	0.4869537723072625	0.3210809233762183	0.4629002656029301	0.3570316301288348	0.21013829400172018	0.637818994393433	0.2690519838597264	0.1869080383267761	0.7301337256135602	0.2550462258771414	0.2241246652360544	0.7554173267502957	0.27063612273505505	0.2527635625154944	0.7622123225450474	0.12451464791889377	0.34745254789959995	0.21240814983714812	0.06584601717125517	0.29530585375652824	0.4604283334872247	0.18718230200492578	0.23557438704671665	0.6388424052127366	0.31909537188635806	0.17223731263703035	0.6558580840578385	0.3119911039270296	0.20541130911672872	0.7294049860573477	0.2558906798400154	0.20040981970839478	0.7513689239862409
